<mxfile host="Electron" agent="Mozilla/5.0 (X11; Linux x86_64) AppleWebKit/537.36 (KHTML, like Gecko) draw.io/26.0.9 Chrome/128.0.6613.186 Electron/32.2.5 Safari/537.36" version="26.0.9">
  <diagram name="Page-1" id="ed9JlyDhw-SPajwVZ9nG">
    <mxGraphModel dx="1410" dy="751" grid="1" gridSize="10" guides="1" tooltips="1" connect="1" arrows="1" fold="1" page="1" pageScale="1" pageWidth="850" pageHeight="1100" math="0" shadow="0">
      <root>
        <mxCell id="0" />
        <mxCell id="1" parent="0" />
        <mxCell id="29K_5r2xHtcd2idBqks7-152" value="" style="rounded=0;whiteSpace=wrap;html=1;dashed=1;dashPattern=8 8;" parent="1" vertex="1">
          <mxGeometry x="210" y="60" width="590" height="385" as="geometry" />
        </mxCell>
        <mxCell id="29K_5r2xHtcd2idBqks7-127" value="" style="rounded=0;whiteSpace=wrap;html=1;dashed=1;dashPattern=1 4;" parent="1" vertex="1">
          <mxGeometry x="230" y="90" width="290" height="265" as="geometry" />
        </mxCell>
        <mxCell id="29K_5r2xHtcd2idBqks7-142" style="edgeStyle=orthogonalEdgeStyle;rounded=0;orthogonalLoop=1;jettySize=auto;html=1;entryX=0;entryY=0.75;entryDx=0;entryDy=0;fillColor=#d5e8d4;strokeColor=#82b366;strokeWidth=2;" parent="1" source="29K_5r2xHtcd2idBqks7-120" target="29K_5r2xHtcd2idBqks7-130" edge="1">
          <mxGeometry relative="1" as="geometry">
            <mxPoint x="570" y="315" as="targetPoint" />
            <Array as="points">
              <mxPoint x="570" y="305" />
              <mxPoint x="570" y="295" />
            </Array>
          </mxGeometry>
        </mxCell>
        <mxCell id="29K_5r2xHtcd2idBqks7-143" style="edgeStyle=orthogonalEdgeStyle;rounded=0;orthogonalLoop=1;jettySize=auto;html=1;entryX=0;entryY=0.75;entryDx=0;entryDy=0;fillColor=#d5e8d4;strokeColor=#82b366;strokeWidth=2;" parent="1" source="29K_5r2xHtcd2idBqks7-120" target="29K_5r2xHtcd2idBqks7-131" edge="1">
          <mxGeometry relative="1" as="geometry">
            <Array as="points">
              <mxPoint x="570" y="305" />
              <mxPoint x="570" y="365" />
            </Array>
          </mxGeometry>
        </mxCell>
        <mxCell id="29K_5r2xHtcd2idBqks7-120" value="" style="rounded=0;whiteSpace=wrap;html=1;" parent="1" vertex="1">
          <mxGeometry x="250" y="275" width="250" height="60" as="geometry" />
        </mxCell>
        <mxCell id="29K_5r2xHtcd2idBqks7-1" value="" style="swimlane;whiteSpace=wrap;html=1;swimlaneLine=0;expand=1;collapsible=0;fillColor=none;" parent="1" vertex="1">
          <mxGeometry x="50" y="98" width="130" height="258" as="geometry" />
        </mxCell>
        <mxCell id="29K_5r2xHtcd2idBqks7-17" value="" style="group" parent="29K_5r2xHtcd2idBqks7-1" vertex="1" connectable="0">
          <mxGeometry x="20.00000000000003" y="7" width="94.42000000000002" height="83" as="geometry" />
        </mxCell>
        <mxCell id="29K_5r2xHtcd2idBqks7-12" value="" style="whiteSpace=wrap;html=1;aspect=fixed;strokeColor=#b85450;fillColor=none;" parent="29K_5r2xHtcd2idBqks7-17" vertex="1">
          <mxGeometry x="7.2099999999999795" y="6" width="77" height="77" as="geometry" />
        </mxCell>
        <mxCell id="29K_5r2xHtcd2idBqks7-8" value="" style="group" parent="29K_5r2xHtcd2idBqks7-17" vertex="1" connectable="0">
          <mxGeometry width="94.42" height="80" as="geometry" />
        </mxCell>
        <mxCell id="29K_5r2xHtcd2idBqks7-13" value="" style="group" parent="29K_5r2xHtcd2idBqks7-8" vertex="1" connectable="0">
          <mxGeometry x="-2.79" width="94.42" height="80" as="geometry" />
        </mxCell>
        <mxCell id="29K_5r2xHtcd2idBqks7-4" value="" style="shape=image;verticalLabelPosition=bottom;labelBackgroundColor=default;verticalAlign=top;aspect=fixed;imageAspect=0;editableCssRules=.*;image=data:image/svg+xml,PHN2ZyB4bWxucz0iaHR0cDovL3d3dy53My5vcmcvMjAwMC9zdmciIHdpZHRoPSIyNCIgdmlld0JveD0iMCAwIDI0IDI0IiBoZWlnaHQ9IjI0IiBmaWxsPSJub25lIj48cGF0aCBzdHJva2U9IiMwMDAiIGZpbGwtcnVsZT0iZXZlbm9kZCIgZD0ibTE3LjI5OTQgMTAuNDUyNyAxLjkyNzMuMzE1Yy4xNTc5LjAyNTguMjczNi4xNjIxLjI3MzMuMzIxOXYxLjc5MzRjMCAuMTU4Mi0uMTEzNS4yOTM4LS4yNjk3LjMyMTJsLTEuOTI5OS4zMzg4Yy0uMTExOS4zODY4LS4yNjU1Ljc1OTItLjQ1ODkgMS4xMTEzbDEuMTQwOCAxLjU4MzljLjA5MzYuMTI5Ny4wNzg5LjMwODEtLjAzNC40MjEzbC0xLjI2NzkgMS4yNjg4Yy0uMTEyMi4xMTE4LS4yODgzLjEyNzgtLjQxODEuMDM2MmwtMS41OTk2LTEuMTIyMWMtLjM1MjguMTk2My0uNzI3NS4zNTI4LTEuMTE4NS40Njc5bC0uMzQwOCAxLjkyMDdjLS4wMjc0LjE1NTUtLjE2MjguMjY5LS4zMjA5LjI2OWgtMS43OTM3Yy0uMTU5NCAwLS4yOTU0LS4xMTUxLS4zMjEyLS4yNzJsLS4zMTgzLTEuOTExMmMtLjM5MDMtLjExMjgtLjc2Ny0uMjY4My0xLjEyMzQ1LS40NjQzbC0xLjU4ODE4IDEuMTEyM2MtLjEyOTQ2LjA5MS0uMzA1ODkuMDc1My0uNDE3NzUtLjAzNjVsLTEuMjY3OTQtMS4yNjg4Yy0uMTEyNTEtLjExMzItLjEyNzE4LS4yOTA5LS4wMzQ1Ny0uNDIwNGwxLjEyMjE3LTEuNTY5NGMtLjE5Nzk1LS4zNTgxLS4zNTUxNC0uNzM2LS40Njg5Ni0xLjEyODNsLTEuOTAxNTctLjMzNzJjLS4xNTU1Ni0uMDI3Ny0uMjY5MDUtLjE2My0uMjY5MDUtLjMyMTJ2LTEuNzkzNGMwLS4xNTkyLjExNTQ0LS4yOTU1LjI3MjYzLS4zMjE2bDEuOTAxNTgtLjMxNjZjLjExNDQ3LS4zOTMyLjI3MTY1LS43NzExOC40Njg5NS0xLjEyODI1bC0xLjEwODQ2LTEuNTg1NzZjLS4wOTA5OS0uMTI5NDYtLjA3NTMzLS4zMDU1NC4wMzY1Mi0uNDE3MzlsMS4yNjc2MS0xLjI2NzVjLjExMzE3LS4xMTI1LjI5MDI1LS4xMjc1LjQyMDM3LS4wMzQ1N2wxLjU3NTEzIDEuMTI1Yy4zNTM4NC0uMTkzNjkuNzI5NTctLjM0NzkzIDEuMTIwODctLjQ2MDQzbC4zMTE4LTEuOTA4OTFjLjAyNTctLjE1NzgzLjE2Mi0uMjczNTkuMzIxOC0uMjczNTloMS43OTM3Yy4xNTg1IDAgLjI5MzguMTE0MTMuMzIxMi4yN2wuMzM2MiAxLjkxOTM1Yy4zODkxLjExMzE1Ljc2NDEuMjY5MDIgMS4xMTkyLjQ2NTMybDEuNTc5NC0xLjEzNTFjLjEyOTgtLjA5MzU5LjMwNzktLjA3ODkyLjQyMS4wMzM5MWwxLjI2ODMgMS4yNjc1Yy4xMTE5LjExMjE3LjEyNzUuMjg4NTkuMDM2NS40MTgwNGwtMS4xMjUxIDEuNjAzMzdjLjE5MzEuMzUxODUuMzQ3My43MjM2MS40NjAyIDEuMTEwMzF6bS03LjU4MjE1IDEuNTQ3M2MwIDEuMjYwNyAxLjAyMjA1IDIuMjgyNiAyLjI4Mjg1IDIuMjgyNiAxLjI2MDcgMCAyLjI4MjgtMS4wMjE5IDIuMjgyOC0yLjI4MjYgMC0xLjI2MDYtMS4wMjIxLTIuMjgyNTgtMi4yODI4LTIuMjgyNTgtMS4yNjA4IDAtMi4yODI4NSAxLjAyMTk4LTIuMjgyODUgMi4yODI1OHoiIGNsaXAtcnVsZT0iZXZlbm9kZCIvPjwvc3ZnPg==;" parent="29K_5r2xHtcd2idBqks7-13" vertex="1">
          <mxGeometry width="80" height="80" as="geometry" />
        </mxCell>
        <mxCell id="29K_5r2xHtcd2idBqks7-6" value="" style="rounded=1;whiteSpace=wrap;html=1;strokeColor=none;arcSize=50;" parent="29K_5r2xHtcd2idBqks7-13" vertex="1">
          <mxGeometry x="49.07" y="28.7" width="30.93" height="39.28" as="geometry" />
        </mxCell>
        <mxCell id="29K_5r2xHtcd2idBqks7-5" value="" style="shape=image;verticalLabelPosition=bottom;labelBackgroundColor=default;verticalAlign=top;aspect=fixed;imageAspect=0;editableCssRules=.*;image=data:image/svg+xml,PHN2ZyB4bWxucz0iaHR0cDovL3d3dy53My5vcmcvMjAwMC9zdmciIHdpZHRoPSIzMiIgdmlld0JveD0iMCAwIDMyIDMyIiBoZWlnaHQ9IjMyIj48cGF0aCBkPSJtMjIuMjU4IDEyLjAxOHEtLjg1My0xLjEzOC0xLjgxMy0xLjk5MXQtMS45OTEtMS4zODdxLS4zMi0uMTc4LS42NTgtLjMzOHQtLjY5My0uMjY3LS43MjktLjE2LS42OTMtLjA1M3EtLjA3MSAwLS4yMTMtLjA3MXQtLjMyLS4yMTNsLS42MDQtLjcxMS0uMDcxLS4xMDctLjY3Ni0uODUzcS0uMTQyLS4xNDItLjMwMi0uMjQ5dC0uMjY3LS4xMDdsLS4xNDIuMDcxcS0uMDM2LjM1Ni0uMTc4LjY5M3QtLjMyLjYyMnEtLjIxMy4yNDktLjQ0NC40OTh0LS40NDQuNDI3bC0uOTI0Ljc4MnEtLjE3OC4xMDctLjMwMi4yNDl0LS4xOTYuMzJxLS4xNDIuNjQtLjM1NiAxLjE5MXQtLjQyNyAxLjAxM2wtLjg4OSAxLjY3MXEtLjI4NC40NjItLjU4Ny44NzF0LS41ODcuNzY0cS0uMjQ5LjMyLS40OC42NHQtLjM3My42MDRsLS4yODQuNTY5LS4wNzEuNTMzdi4yMTNsLjAzNi4yNDlxMCAuMjEzLjA3MS40MDl0LjE3OC4zNzNxLjIxMy4zMi42NC4zMmguMjg0bC4yODQtLjE0Mi4yODQtLjI4NC40MjctLjQ5OC4wNzEtLjA3MS4xNDItLjEwNy42MDQtLjM5MS43ODItLjM1NiAxLjI0NC0uNDI3LjY3Ni0uMTc4cS4xMDcgMCAuMjEzLS4wMzZ0LjE0Mi0uMDM2bC4zMi0uMzU2LjM5MS0uNDk4LjQ2Mi0uNjA0Ljg4OS0xLjAzMXEuMjg0LS4yNDkuNTY5LS4zNzN0LjYwNC0uMTI0aC4yMTNxLjQyNyAwIC44MzYuMTZ0Ljc2NC40OC42NzYuNjkzLjUzMy44bC4yMTMuNTY5di41NjlxMCAuODUzLS4yMTMgMS40OTN0LS42MDQgMS4xMDJxLS4zOTEuNDI3LS44NTMuODE4dC0uOTYuNzQ3bC0uOTI0LjQ2MnEtLjIxMy4wNzEtLjQyNy4xNzh0LS4zMi4yMTNsLS43MTEuNDYycS0uMDcxLjEwNy0uMTQyLjI0OXQtLjEwNy4zMmwxLjU2NC0uMjg0aDYuNTQycS4xNzggMCAuNTY5LjA1M3QuOTYuMTI0cS4yMTMtLjMyLjM5MS0uODcxdC4zMi0xLjMzM3EuMDM2LS4yMTMuMDcxLS41ODd0LjAzNi0uODcxLjAxOC0uOTA3LjAxOC0uNjkzcTAtMS4zMTYtLjQyNy0yLjU3OHQtMS4zMTYtMi40MzZ6bTMuNDg0IDE1Ljg5M3EwLS41NjktLjIzMS0uOTk2dC0uNzI5LS42NzZxLS4yMTMtLjE0Mi0uNDgtLjI2N3QtLjUxNi0uMTk2LS42MjItLjIxMy0uODM2LS4yNDloLS4xMDdsLS43NDctLjI0OS0uNjc2LS4xNzgtMS42NzEtLjE3OGgtMy43MzNsLTEuODg0LjE3OC0uODE4LjIxMy0uNzQ3LjIxM3EtLjYwNC4xNDItMS4xNzMuMzczdC0xLjAzMS40OHEtLjQ2Mi4yODQtLjcxMS43Mjl0LS4yNDkgMS4wMTNoMTYuOTZ6bS0xOS42NjIgMi42MzF2LS42NGwuMDM2LS43MTFxMC0uODUzLjI0OS0xLjc0Mi4xMDctLjQyNy4yODQtLjkwN3QuMzkxLS45MDdxLjM5MS0uODUzIDEuMTM4LTEuNDkzdDEuODQ5LTEuMTAycTAtLjUzMy4yNDktMS4wMTN0Ljc0Ny0uODcxbDIuNjMxLTEuNzc4IDEuNzQyLTEuMzE2cS4zNTYtLjMyLjU1MS0uNzI5dC4xOTYtLjgzNmwtLjEwNy0uNTMzcS0uMDcxLS4xNDItLjE5Ni0uMjEzdC0uMzM4LS4wNzFsLS4zNTYuMTA3LS4yMTMuMzItLjI4NC4zNTYtLjIxMy4zNTYtLjM5MS40OTgtLjUzMy40MjdxLS4xNDIuMDM2LS4zMi4xMjR0LS4zNTYuMTZxLS4wMzYgMC0uMjEzLjA3MXQtLjQ5OC4xNDJsLTEuMTM4LjM1NnEtLjI4NC4wNzEtLjU1MS4xNnQtLjQ0NC4yMzFxLS4xNzguMTA3LS4zMDIuMjY3dC0uMTI0LjMzOHEtLjAzNi4xNzgtLjA3MS4zMDJsLS4wMzYuMTI0LS4xMDcuMjEzcS0uMTQyLjE0Mi0uNDA5LjMydC0uNjIyLjM5MXEtLjMyLjE0Mi0uNjkzLjIxM3QtLjc2NC4wNzFxLS43MTEgMC0xLjI5OC0uMjY3dC0xLjAxMy0uNzY0cS0uMzkxLS40OTgtLjY0LTEuMTAydC0uMjg0LTEuMjA5di0uMjEzcTAtLjcxMS4xNi0xLjM1MXQuNDgtMS4yMDlxLjE3OC0uMzIuMzU2LS42MjJ0LjM1Ni0uNTE2cS4xNDItLjI0OS4zNTYtLjUxNnQuNDI3LS41MTZsLjY0LS43ODIuNTY5LS43ODJxLjE0Mi0uMjEzLjI0OS0uMzU2dC4xMDctLjIxM3EuMDcxLS4xMDcuMTQyLS4yNjd0LjEwNy0uMzAycS4xMDctLjE3OC4xNzgtLjM1NnQuMTA3LS4yODRxMC0uMTQyLjAzNi0uMzJ0LjAzNi0uMzU2cTAtLjI4NC4xMDctLjUzM3QuMjg0LS40NjJsMS4wMzEtLjg4OS4xNDItLjEwNy4xNzgtLjEwNyAxLjEzOC0uOTk2cS4yNDktLjI4NC40MDktLjYwNHQuMTYtLjYwNGwuMDcxLS40OThxMC0uMjEzLjAxOC0uNDA5dC4wNTMtLjQwOXEuMDcxLS4xNzguMTQyLS4zOTF0LjE3OC0uMzkxcS4xMDctLjIxMy4zMi0uMzM4dC40NjItLjE5NnEuMjEzLjEwNy40OC4zMzh0LjQ4LjUxNmwxLjAzMSAxLjIwOS41NjkuNzExdC42MDQuNjQuNjc2LjQ5OC42NzYuMjg0cS4wMzYgMCAuMTk2LjA1M3QuMzczLjA4OXEuMjQ5LjA3MS41NTEuMTZ0LjYyMi4xOTZxLjcxMS4xNzggMS40NzYuNTY5dDEuNTgyLjkyNHEuODE4LjYwNCAxLjYgMS40NTh0MS41NjQgMS45OTFxLjc4MiAxLjEwMiAxLjE1NiAyLjYzMXQuMzczIDMuNDEzcTAgLjM1Ni0uMDE4LjcxMXQtLjAxOC43MTFxMCAuMzItLjA1My42NHQtLjA4OS41NjlsLS40MjcgMi4wOTgtLjI4NC43MTFxLjk5Ni42NzYgMS41ODIgMS40MjJ0Ljc2NCAxLjYuMjY3IDEuODEzLjA4OSAxLjk5MWwuMDM2LjMyLS4wMzYuMjg0aC0yMi4zNjR6Ii8+PC9zdmc+;imageBackground=none;flipH=1;" parent="29K_5r2xHtcd2idBqks7-13" vertex="1">
          <mxGeometry x="38.43000000000001" y="22.22999999999999" width="52.21846363636364" height="52.21846363636364" as="geometry" />
        </mxCell>
        <mxCell id="29K_5r2xHtcd2idBqks7-16" value="" style="endArrow=none;html=1;rounded=0;noJump=1;entryX=0.854;entryY=0.999;entryDx=0;entryDy=0;entryPerimeter=0;strokeWidth=2;exitX=0.75;exitY=1;exitDx=0;exitDy=0;" parent="29K_5r2xHtcd2idBqks7-13" source="29K_5r2xHtcd2idBqks7-5" edge="1">
          <mxGeometry width="50" height="50" relative="1" as="geometry">
            <mxPoint x="80" y="74.5" as="sourcePoint" />
            <mxPoint x="47.62389569090908" y="74.44624517272723" as="targetPoint" />
          </mxGeometry>
        </mxCell>
        <mxCell id="29K_5r2xHtcd2idBqks7-18" value="" style="group" parent="29K_5r2xHtcd2idBqks7-1" vertex="1" connectable="0">
          <mxGeometry x="37.21" y="107" width="60" height="50" as="geometry" />
        </mxCell>
        <mxCell id="29K_5r2xHtcd2idBqks7-19" value="" style="whiteSpace=wrap;html=1;aspect=fixed;strokeColor=#6c8ebf;fillColor=none;" parent="29K_5r2xHtcd2idBqks7-18" vertex="1">
          <mxGeometry x="4.581656428722715" y="3.6144578313253013" width="46.385542168674704" height="46.385542168674704" as="geometry" />
        </mxCell>
        <mxCell id="29K_5r2xHtcd2idBqks7-20" value="" style="group" parent="29K_5r2xHtcd2idBqks7-18" vertex="1" connectable="0">
          <mxGeometry width="59.999999999999986" height="48.19277108433735" as="geometry" />
        </mxCell>
        <mxCell id="29K_5r2xHtcd2idBqks7-21" value="" style="group" parent="29K_5r2xHtcd2idBqks7-20" vertex="1" connectable="0">
          <mxGeometry x="-1.7729294640965891" width="59.999999999999986" height="48.19277108433735" as="geometry" />
        </mxCell>
        <mxCell id="29K_5r2xHtcd2idBqks7-22" value="" style="shape=image;verticalLabelPosition=bottom;labelBackgroundColor=default;verticalAlign=top;aspect=fixed;imageAspect=0;editableCssRules=.*;image=data:image/svg+xml,PHN2ZyB4bWxucz0iaHR0cDovL3d3dy53My5vcmcvMjAwMC9zdmciIHdpZHRoPSIyNCIgdmlld0JveD0iMCAwIDI0IDI0IiBoZWlnaHQ9IjI0IiBmaWxsPSJub25lIj48cGF0aCBzdHJva2U9IiMwMDAiIGZpbGwtcnVsZT0iZXZlbm9kZCIgZD0ibTE3LjI5OTQgMTAuNDUyNyAxLjkyNzMuMzE1Yy4xNTc5LjAyNTguMjczNi4xNjIxLjI3MzMuMzIxOXYxLjc5MzRjMCAuMTU4Mi0uMTEzNS4yOTM4LS4yNjk3LjMyMTJsLTEuOTI5OS4zMzg4Yy0uMTExOS4zODY4LS4yNjU1Ljc1OTItLjQ1ODkgMS4xMTEzbDEuMTQwOCAxLjU4MzljLjA5MzYuMTI5Ny4wNzg5LjMwODEtLjAzNC40MjEzbC0xLjI2NzkgMS4yNjg4Yy0uMTEyMi4xMTE4LS4yODgzLjEyNzgtLjQxODEuMDM2MmwtMS41OTk2LTEuMTIyMWMtLjM1MjguMTk2My0uNzI3NS4zNTI4LTEuMTE4NS40Njc5bC0uMzQwOCAxLjkyMDdjLS4wMjc0LjE1NTUtLjE2MjguMjY5LS4zMjA5LjI2OWgtMS43OTM3Yy0uMTU5NCAwLS4yOTU0LS4xMTUxLS4zMjEyLS4yNzJsLS4zMTgzLTEuOTExMmMtLjM5MDMtLjExMjgtLjc2Ny0uMjY4My0xLjEyMzQ1LS40NjQzbC0xLjU4ODE4IDEuMTEyM2MtLjEyOTQ2LjA5MS0uMzA1ODkuMDc1My0uNDE3NzUtLjAzNjVsLTEuMjY3OTQtMS4yNjg4Yy0uMTEyNTEtLjExMzItLjEyNzE4LS4yOTA5LS4wMzQ1Ny0uNDIwNGwxLjEyMjE3LTEuNTY5NGMtLjE5Nzk1LS4zNTgxLS4zNTUxNC0uNzM2LS40Njg5Ni0xLjEyODNsLTEuOTAxNTctLjMzNzJjLS4xNTU1Ni0uMDI3Ny0uMjY5MDUtLjE2My0uMjY5MDUtLjMyMTJ2LTEuNzkzNGMwLS4xNTkyLjExNTQ0LS4yOTU1LjI3MjYzLS4zMjE2bDEuOTAxNTgtLjMxNjZjLjExNDQ3LS4zOTMyLjI3MTY1LS43NzExOC40Njg5NS0xLjEyODI1bC0xLjEwODQ2LTEuNTg1NzZjLS4wOTA5OS0uMTI5NDYtLjA3NTMzLS4zMDU1NC4wMzY1Mi0uNDE3MzlsMS4yNjc2MS0xLjI2NzVjLjExMzE3LS4xMTI1LjI5MDI1LS4xMjc1LjQyMDM3LS4wMzQ1N2wxLjU3NTEzIDEuMTI1Yy4zNTM4NC0uMTkzNjkuNzI5NTctLjM0NzkzIDEuMTIwODctLjQ2MDQzbC4zMTE4LTEuOTA4OTFjLjAyNTctLjE1NzgzLjE2Mi0uMjczNTkuMzIxOC0uMjczNTloMS43OTM3Yy4xNTg1IDAgLjI5MzguMTE0MTMuMzIxMi4yN2wuMzM2MiAxLjkxOTM1Yy4zODkxLjExMzE1Ljc2NDEuMjY5MDIgMS4xMTkyLjQ2NTMybDEuNTc5NC0xLjEzNTFjLjEyOTgtLjA5MzU5LjMwNzktLjA3ODkyLjQyMS4wMzM5MWwxLjI2ODMgMS4yNjc1Yy4xMTE5LjExMjE3LjEyNzUuMjg4NTkuMDM2NS40MTgwNGwtMS4xMjUxIDEuNjAzMzdjLjE5MzEuMzUxODUuMzQ3My43MjM2MS40NjAyIDEuMTEwMzF6bS03LjU4MjE1IDEuNTQ3M2MwIDEuMjYwNyAxLjAyMjA1IDIuMjgyNiAyLjI4Mjg1IDIuMjgyNiAxLjI2MDcgMCAyLjI4MjgtMS4wMjE5IDIuMjgyOC0yLjI4MjYgMC0xLjI2MDYtMS4wMjIxLTIuMjgyNTgtMi4yODI4LTIuMjgyNTgtMS4yNjA4IDAtMi4yODI4NSAxLjAyMTk4LTIuMjgyODUgMi4yODI1OHoiIGNsaXAtcnVsZT0iZXZlbm9kZCIvPjwvc3ZnPg==;" parent="29K_5r2xHtcd2idBqks7-21" vertex="1">
          <mxGeometry width="48.19277108433735" height="48.19277108433735" as="geometry" />
        </mxCell>
        <mxCell id="29K_5r2xHtcd2idBqks7-23" value="" style="rounded=1;whiteSpace=wrap;html=1;strokeColor=none;arcSize=50;" parent="29K_5r2xHtcd2idBqks7-21" vertex="1">
          <mxGeometry x="31.181952976064384" y="17.289156626506024" width="19.654734166490144" height="23.66265060240964" as="geometry" />
        </mxCell>
        <mxCell id="29K_5r2xHtcd2idBqks7-24" value="" style="shape=image;verticalLabelPosition=bottom;labelBackgroundColor=default;verticalAlign=top;aspect=fixed;imageAspect=0;editableCssRules=.*;image=data:image/svg+xml,PHN2ZyB4bWxucz0iaHR0cDovL3d3dy53My5vcmcvMjAwMC9zdmciIHdpZHRoPSIzMiIgdmlld0JveD0iMCAwIDMyIDMyIiBoZWlnaHQ9IjMyIj48cGF0aCBkPSJtMjIuMjU4IDEyLjAxOHEtLjg1My0xLjEzOC0xLjgxMy0xLjk5MXQtMS45OTEtMS4zODdxLS4zMi0uMTc4LS42NTgtLjMzOHQtLjY5My0uMjY3LS43MjktLjE2LS42OTMtLjA1M3EtLjA3MSAwLS4yMTMtLjA3MXQtLjMyLS4yMTNsLS42MDQtLjcxMS0uMDcxLS4xMDctLjY3Ni0uODUzcS0uMTQyLS4xNDItLjMwMi0uMjQ5dC0uMjY3LS4xMDdsLS4xNDIuMDcxcS0uMDM2LjM1Ni0uMTc4LjY5M3QtLjMyLjYyMnEtLjIxMy4yNDktLjQ0NC40OTh0LS40NDQuNDI3bC0uOTI0Ljc4MnEtLjE3OC4xMDctLjMwMi4yNDl0LS4xOTYuMzJxLS4xNDIuNjQtLjM1NiAxLjE5MXQtLjQyNyAxLjAxM2wtLjg4OSAxLjY3MXEtLjI4NC40NjItLjU4Ny44NzF0LS41ODcuNzY0cS0uMjQ5LjMyLS40OC42NHQtLjM3My42MDRsLS4yODQuNTY5LS4wNzEuNTMzdi4yMTNsLjAzNi4yNDlxMCAuMjEzLjA3MS40MDl0LjE3OC4zNzNxLjIxMy4zMi42NC4zMmguMjg0bC4yODQtLjE0Mi4yODQtLjI4NC40MjctLjQ5OC4wNzEtLjA3MS4xNDItLjEwNy42MDQtLjM5MS43ODItLjM1NiAxLjI0NC0uNDI3LjY3Ni0uMTc4cS4xMDcgMCAuMjEzLS4wMzZ0LjE0Mi0uMDM2bC4zMi0uMzU2LjM5MS0uNDk4LjQ2Mi0uNjA0Ljg4OS0xLjAzMXEuMjg0LS4yNDkuNTY5LS4zNzN0LjYwNC0uMTI0aC4yMTNxLjQyNyAwIC44MzYuMTZ0Ljc2NC40OC42NzYuNjkzLjUzMy44bC4yMTMuNTY5di41NjlxMCAuODUzLS4yMTMgMS40OTN0LS42MDQgMS4xMDJxLS4zOTEuNDI3LS44NTMuODE4dC0uOTYuNzQ3bC0uOTI0LjQ2MnEtLjIxMy4wNzEtLjQyNy4xNzh0LS4zMi4yMTNsLS43MTEuNDYycS0uMDcxLjEwNy0uMTQyLjI0OXQtLjEwNy4zMmwxLjU2NC0uMjg0aDYuNTQycS4xNzggMCAuNTY5LjA1M3QuOTYuMTI0cS4yMTMtLjMyLjM5MS0uODcxdC4zMi0xLjMzM3EuMDM2LS4yMTMuMDcxLS41ODd0LjAzNi0uODcxLjAxOC0uOTA3LjAxOC0uNjkzcTAtMS4zMTYtLjQyNy0yLjU3OHQtMS4zMTYtMi40MzZ6bTMuNDg0IDE1Ljg5M3EwLS41NjktLjIzMS0uOTk2dC0uNzI5LS42NzZxLS4yMTMtLjE0Mi0uNDgtLjI2N3QtLjUxNi0uMTk2LS42MjItLjIxMy0uODM2LS4yNDloLS4xMDdsLS43NDctLjI0OS0uNjc2LS4xNzgtMS42NzEtLjE3OGgtMy43MzNsLTEuODg0LjE3OC0uODE4LjIxMy0uNzQ3LjIxM3EtLjYwNC4xNDItMS4xNzMuMzczdC0xLjAzMS40OHEtLjQ2Mi4yODQtLjcxMS43Mjl0LS4yNDkgMS4wMTNoMTYuOTZ6bS0xOS42NjIgMi42MzF2LS42NGwuMDM2LS43MTFxMC0uODUzLjI0OS0xLjc0Mi4xMDctLjQyNy4yODQtLjkwN3QuMzkxLS45MDdxLjM5MS0uODUzIDEuMTM4LTEuNDkzdDEuODQ5LTEuMTAycTAtLjUzMy4yNDktMS4wMTN0Ljc0Ny0uODcxbDIuNjMxLTEuNzc4IDEuNzQyLTEuMzE2cS4zNTYtLjMyLjU1MS0uNzI5dC4xOTYtLjgzNmwtLjEwNy0uNTMzcS0uMDcxLS4xNDItLjE5Ni0uMjEzdC0uMzM4LS4wNzFsLS4zNTYuMTA3LS4yMTMuMzItLjI4NC4zNTYtLjIxMy4zNTYtLjM5MS40OTgtLjUzMy40MjdxLS4xNDIuMDM2LS4zMi4xMjR0LS4zNTYuMTZxLS4wMzYgMC0uMjEzLjA3MXQtLjQ5OC4xNDJsLTEuMTM4LjM1NnEtLjI4NC4wNzEtLjU1MS4xNnQtLjQ0NC4yMzFxLS4xNzguMTA3LS4zMDIuMjY3dC0uMTI0LjMzOHEtLjAzNi4xNzgtLjA3MS4zMDJsLS4wMzYuMTI0LS4xMDcuMjEzcS0uMTQyLjE0Mi0uNDA5LjMydC0uNjIyLjM5MXEtLjMyLjE0Mi0uNjkzLjIxM3QtLjc2NC4wNzFxLS43MTEgMC0xLjI5OC0uMjY3dC0xLjAxMy0uNzY0cS0uMzkxLS40OTgtLjY0LTEuMTAydC0uMjg0LTEuMjA5di0uMjEzcTAtLjcxMS4xNi0xLjM1MXQuNDgtMS4yMDlxLjE3OC0uMzIuMzU2LS42MjJ0LjM1Ni0uNTE2cS4xNDItLjI0OS4zNTYtLjUxNnQuNDI3LS41MTZsLjY0LS43ODIuNTY5LS43ODJxLjE0Mi0uMjEzLjI0OS0uMzU2dC4xMDctLjIxM3EuMDcxLS4xMDcuMTQyLS4yNjd0LjEwNy0uMzAycS4xMDctLjE3OC4xNzgtLjM1NnQuMTA3LS4yODRxMC0uMTQyLjAzNi0uMzJ0LjAzNi0uMzU2cTAtLjI4NC4xMDctLjUzM3QuMjg0LS40NjJsMS4wMzEtLjg4OS4xNDItLjEwNy4xNzgtLjEwNyAxLjEzOC0uOTk2cS4yNDktLjI4NC40MDktLjYwNHQuMTYtLjYwNGwuMDcxLS40OThxMC0uMjEzLjAxOC0uNDA5dC4wNTMtLjQwOXEuMDcxLS4xNzguMTQyLS4zOTF0LjE3OC0uMzkxcS4xMDctLjIxMy4zMi0uMzM4dC40NjItLjE5NnEuMjEzLjEwNy40OC4zMzh0LjQ4LjUxNmwxLjAzMSAxLjIwOS41NjkuNzExdC42MDQuNjQuNjc2LjQ5OC42NzYuMjg0cS4wMzYgMCAuMTk2LjA1M3QuMzczLjA4OXEuMjQ5LjA3MS41NTEuMTZ0LjYyMi4xOTZxLjcxMS4xNzggMS40NzYuNTY5dDEuNTgyLjkyNHEuODE4LjYwNCAxLjYgMS40NTh0MS41NjQgMS45OTFxLjc4MiAxLjEwMiAxLjE1NiAyLjYzMXQuMzczIDMuNDEzcTAgLjM1Ni0uMDE4LjcxMXQtLjAxOC43MTFxMCAuMzItLjA1My42NHQtLjA4OS41NjlsLS40MjcgMi4wOTgtLjI4NC43MTFxLjk5Ni42NzYgMS41ODIgMS40MjJ0Ljc2NCAxLjYuMjY3IDEuODEzLjA4OSAxLjk5MWwuMDM2LjMyLS4wMzYuMjg0aC0yMi4zNjR6Ii8+PC9zdmc+;imageBackground=none;flipH=1;" parent="29K_5r2xHtcd2idBqks7-21" vertex="1">
          <mxGeometry x="24.420673586104634" y="13.391566265060234" width="31.456905805038335" height="31.456905805038335" as="geometry" />
        </mxCell>
        <mxCell id="29K_5r2xHtcd2idBqks7-25" value="" style="endArrow=none;html=1;rounded=0;noJump=1;entryX=0.854;entryY=0.999;entryDx=0;entryDy=0;entryPerimeter=0;strokeWidth=2;exitX=0.75;exitY=1;exitDx=0;exitDy=0;" parent="29K_5r2xHtcd2idBqks7-21" source="29K_5r2xHtcd2idBqks7-24" edge="1">
          <mxGeometry width="50" height="50" relative="1" as="geometry">
            <mxPoint x="50.83668714255453" y="44.87951807228916" as="sourcePoint" />
            <mxPoint x="30.263013571854945" y="44.847135646221226" as="targetPoint" />
          </mxGeometry>
        </mxCell>
        <mxCell id="29K_5r2xHtcd2idBqks7-28" value="" style="group" parent="29K_5r2xHtcd2idBqks7-1" vertex="1" connectable="0">
          <mxGeometry x="27.210000000000008" y="167" width="79.99999999999999" height="70" as="geometry" />
        </mxCell>
        <mxCell id="29K_5r2xHtcd2idBqks7-30" value="" style="shape=image;verticalLabelPosition=bottom;labelBackgroundColor=default;verticalAlign=top;aspect=fixed;imageAspect=0;editableCssRules=.*;image=data:image/svg+xml,PHN2ZyB4bWxucz0iaHR0cDovL3d3dy53My5vcmcvMjAwMC9zdmciIHdpZHRoPSIyNCIgdmlld0JveD0iMCAwIDI0IDI0IiBoZWlnaHQ9IjI0IiBmaWxsPSJub25lIj48cGF0aCBzdHJva2U9IiMwMDAiIGZpbGwtcnVsZT0iZXZlbm9kZCIgZD0ibTE3LjI5OTQgMTAuNDUyNyAxLjkyNzMuMzE1Yy4xNTc5LjAyNTguMjczNi4xNjIxLjI3MzMuMzIxOXYxLjc5MzRjMCAuMTU4Mi0uMTEzNS4yOTM4LS4yNjk3LjMyMTJsLTEuOTI5OS4zMzg4Yy0uMTExOS4zODY4LS4yNjU1Ljc1OTItLjQ1ODkgMS4xMTEzbDEuMTQwOCAxLjU4MzljLjA5MzYuMTI5Ny4wNzg5LjMwODEtLjAzNC40MjEzbC0xLjI2NzkgMS4yNjg4Yy0uMTEyMi4xMTE4LS4yODgzLjEyNzgtLjQxODEuMDM2MmwtMS41OTk2LTEuMTIyMWMtLjM1MjguMTk2My0uNzI3NS4zNTI4LTEuMTE4NS40Njc5bC0uMzQwOCAxLjkyMDdjLS4wMjc0LjE1NTUtLjE2MjguMjY5LS4zMjA5LjI2OWgtMS43OTM3Yy0uMTU5NCAwLS4yOTU0LS4xMTUxLS4zMjEyLS4yNzJsLS4zMTgzLTEuOTExMmMtLjM5MDMtLjExMjgtLjc2Ny0uMjY4My0xLjEyMzQ1LS40NjQzbC0xLjU4ODE4IDEuMTEyM2MtLjEyOTQ2LjA5MS0uMzA1ODkuMDc1My0uNDE3NzUtLjAzNjVsLTEuMjY3OTQtMS4yNjg4Yy0uMTEyNTEtLjExMzItLjEyNzE4LS4yOTA5LS4wMzQ1Ny0uNDIwNGwxLjEyMjE3LTEuNTY5NGMtLjE5Nzk1LS4zNTgxLS4zNTUxNC0uNzM2LS40Njg5Ni0xLjEyODNsLTEuOTAxNTctLjMzNzJjLS4xNTU1Ni0uMDI3Ny0uMjY5MDUtLjE2My0uMjY5MDUtLjMyMTJ2LTEuNzkzNGMwLS4xNTkyLjExNTQ0LS4yOTU1LjI3MjYzLS4zMjE2bDEuOTAxNTgtLjMxNjZjLjExNDQ3LS4zOTMyLjI3MTY1LS43NzExOC40Njg5NS0xLjEyODI1bC0xLjEwODQ2LTEuNTg1NzZjLS4wOTA5OS0uMTI5NDYtLjA3NTMzLS4zMDU1NC4wMzY1Mi0uNDE3MzlsMS4yNjc2MS0xLjI2NzVjLjExMzE3LS4xMTI1LjI5MDI1LS4xMjc1LjQyMDM3LS4wMzQ1N2wxLjU3NTEzIDEuMTI1Yy4zNTM4NC0uMTkzNjkuNzI5NTctLjM0NzkzIDEuMTIwODctLjQ2MDQzbC4zMTE4LTEuOTA4OTFjLjAyNTctLjE1NzgzLjE2Mi0uMjczNTkuMzIxOC0uMjczNTloMS43OTM3Yy4xNTg1IDAgLjI5MzguMTE0MTMuMzIxMi4yN2wuMzM2MiAxLjkxOTM1Yy4zODkxLjExMzE1Ljc2NDEuMjY5MDIgMS4xMTkyLjQ2NTMybDEuNTc5NC0xLjEzNTFjLjEyOTgtLjA5MzU5LjMwNzktLjA3ODkyLjQyMS4wMzM5MWwxLjI2ODMgMS4yNjc1Yy4xMTE5LjExMjE3LjEyNzUuMjg4NTkuMDM2NS40MTgwNGwtMS4xMjUxIDEuNjAzMzdjLjE5MzEuMzUxODUuMzQ3My43MjM2MS40NjAyIDEuMTEwMzF6bS03LjU4MjE1IDEuNTQ3M2MwIDEuMjYwNyAxLjAyMjA1IDIuMjgyNiAyLjI4Mjg1IDIuMjgyNiAxLjI2MDcgMCAyLjI4MjgtMS4wMjE5IDIuMjgyOC0yLjI4MjYgMC0xLjI2MDYtMS4wMjIxLTIuMjgyNTgtMi4yODI4LTIuMjgyNTgtMS4yNjA4IDAtMi4yODI4NSAxLjAyMTk4LTIuMjgyODUgMi4yODI1OHoiIGNsaXAtcnVsZT0iZXZlbm9kZCIvPjwvc3ZnPg==;" parent="29K_5r2xHtcd2idBqks7-28" vertex="1">
          <mxGeometry x="-2.363905952128789" width="64.2570281124498" height="64.2570281124498" as="geometry" />
        </mxCell>
        <mxCell id="29K_5r2xHtcd2idBqks7-31" value="" style="rounded=1;whiteSpace=wrap;html=1;strokeColor=none;arcSize=50;" parent="29K_5r2xHtcd2idBqks7-28" vertex="1">
          <mxGeometry x="39.21203134929039" y="24.204819277108435" width="26.20631222198686" height="33.1277108433735" as="geometry" />
        </mxCell>
        <mxCell id="29K_5r2xHtcd2idBqks7-32" value="" style="shape=image;verticalLabelPosition=bottom;labelBackgroundColor=default;verticalAlign=top;aspect=fixed;imageAspect=0;editableCssRules=.*;image=data:image/svg+xml,PHN2ZyB4bWxucz0iaHR0cDovL3d3dy53My5vcmcvMjAwMC9zdmciIHdpZHRoPSIzMiIgdmlld0JveD0iMCAwIDMyIDMyIiBoZWlnaHQ9IjMyIj48cGF0aCBkPSJtMjIuMjU4IDEyLjAxOHEtLjg1My0xLjEzOC0xLjgxMy0xLjk5MXQtMS45OTEtMS4zODdxLS4zMi0uMTc4LS42NTgtLjMzOHQtLjY5My0uMjY3LS43MjktLjE2LS42OTMtLjA1M3EtLjA3MSAwLS4yMTMtLjA3MXQtLjMyLS4yMTNsLS42MDQtLjcxMS0uMDcxLS4xMDctLjY3Ni0uODUzcS0uMTQyLS4xNDItLjMwMi0uMjQ5dC0uMjY3LS4xMDdsLS4xNDIuMDcxcS0uMDM2LjM1Ni0uMTc4LjY5M3QtLjMyLjYyMnEtLjIxMy4yNDktLjQ0NC40OTh0LS40NDQuNDI3bC0uOTI0Ljc4MnEtLjE3OC4xMDctLjMwMi4yNDl0LS4xOTYuMzJxLS4xNDIuNjQtLjM1NiAxLjE5MXQtLjQyNyAxLjAxM2wtLjg4OSAxLjY3MXEtLjI4NC40NjItLjU4Ny44NzF0LS41ODcuNzY0cS0uMjQ5LjMyLS40OC42NHQtLjM3My42MDRsLS4yODQuNTY5LS4wNzEuNTMzdi4yMTNsLjAzNi4yNDlxMCAuMjEzLjA3MS40MDl0LjE3OC4zNzNxLjIxMy4zMi42NC4zMmguMjg0bC4yODQtLjE0Mi4yODQtLjI4NC40MjctLjQ5OC4wNzEtLjA3MS4xNDItLjEwNy42MDQtLjM5MS43ODItLjM1NiAxLjI0NC0uNDI3LjY3Ni0uMTc4cS4xMDcgMCAuMjEzLS4wMzZ0LjE0Mi0uMDM2bC4zMi0uMzU2LjM5MS0uNDk4LjQ2Mi0uNjA0Ljg4OS0xLjAzMXEuMjg0LS4yNDkuNTY5LS4zNzN0LjYwNC0uMTI0aC4yMTNxLjQyNyAwIC44MzYuMTZ0Ljc2NC40OC42NzYuNjkzLjUzMy44bC4yMTMuNTY5di41NjlxMCAuODUzLS4yMTMgMS40OTN0LS42MDQgMS4xMDJxLS4zOTEuNDI3LS44NTMuODE4dC0uOTYuNzQ3bC0uOTI0LjQ2MnEtLjIxMy4wNzEtLjQyNy4xNzh0LS4zMi4yMTNsLS43MTEuNDYycS0uMDcxLjEwNy0uMTQyLjI0OXQtLjEwNy4zMmwxLjU2NC0uMjg0aDYuNTQycS4xNzggMCAuNTY5LjA1M3QuOTYuMTI0cS4yMTMtLjMyLjM5MS0uODcxdC4zMi0xLjMzM3EuMDM2LS4yMTMuMDcxLS41ODd0LjAzNi0uODcxLjAxOC0uOTA3LjAxOC0uNjkzcTAtMS4zMTYtLjQyNy0yLjU3OHQtMS4zMTYtMi40MzZ6bTMuNDg0IDE1Ljg5M3EwLS41NjktLjIzMS0uOTk2dC0uNzI5LS42NzZxLS4yMTMtLjE0Mi0uNDgtLjI2N3QtLjUxNi0uMTk2LS42MjItLjIxMy0uODM2LS4yNDloLS4xMDdsLS43NDctLjI0OS0uNjc2LS4xNzgtMS42NzEtLjE3OGgtMy43MzNsLTEuODg0LjE3OC0uODE4LjIxMy0uNzQ3LjIxM3EtLjYwNC4xNDItMS4xNzMuMzczdC0xLjAzMS40OHEtLjQ2Mi4yODQtLjcxMS43Mjl0LS4yNDkgMS4wMTNoMTYuOTZ6bS0xOS42NjIgMi42MzF2LS42NGwuMDM2LS43MTFxMC0uODUzLjI0OS0xLjc0Mi4xMDctLjQyNy4yODQtLjkwN3QuMzkxLS45MDdxLjM5MS0uODUzIDEuMTM4LTEuNDkzdDEuODQ5LTEuMTAycTAtLjUzMy4yNDktMS4wMTN0Ljc0Ny0uODcxbDIuNjMxLTEuNzc4IDEuNzQyLTEuMzE2cS4zNTYtLjMyLjU1MS0uNzI5dC4xOTYtLjgzNmwtLjEwNy0uNTMzcS0uMDcxLS4xNDItLjE5Ni0uMjEzdC0uMzM4LS4wNzFsLS4zNTYuMTA3LS4yMTMuMzItLjI4NC4zNTYtLjIxMy4zNTYtLjM5MS40OTgtLjUzMy40MjdxLS4xNDIuMDM2LS4zMi4xMjR0LS4zNTYuMTZxLS4wMzYgMC0uMjEzLjA3MXQtLjQ5OC4xNDJsLTEuMTM4LjM1NnEtLjI4NC4wNzEtLjU1MS4xNnQtLjQ0NC4yMzFxLS4xNzguMTA3LS4zMDIuMjY3dC0uMTI0LjMzOHEtLjAzNi4xNzgtLjA3MS4zMDJsLS4wMzYuMTI0LS4xMDcuMjEzcS0uMTQyLjE0Mi0uNDA5LjMydC0uNjIyLjM5MXEtLjMyLjE0Mi0uNjkzLjIxM3QtLjc2NC4wNzFxLS43MTEgMC0xLjI5OC0uMjY3dC0xLjAxMy0uNzY0cS0uMzkxLS40OTgtLjY0LTEuMTAydC0uMjg0LTEuMjA5di0uMjEzcTAtLjcxMS4xNi0xLjM1MXQuNDgtMS4yMDlxLjE3OC0uMzIuMzU2LS42MjJ0LjM1Ni0uNTE2cS4xNDItLjI0OS4zNTYtLjUxNnQuNDI3LS41MTZsLjY0LS43ODIuNTY5LS43ODJxLjE0Mi0uMjEzLjI0OS0uMzU2dC4xMDctLjIxM3EuMDcxLS4xMDcuMTQyLS4yNjd0LjEwNy0uMzAycS4xMDctLjE3OC4xNzgtLjM1NnQuMTA3LS4yODRxMC0uMTQyLjAzNi0uMzJ0LjAzNi0uMzU2cTAtLjI4NC4xMDctLjUzM3QuMjg0LS40NjJsMS4wMzEtLjg4OS4xNDItLjEwNy4xNzgtLjEwNyAxLjEzOC0uOTk2cS4yNDktLjI4NC40MDktLjYwNHQuMTYtLjYwNGwuMDcxLS40OThxMC0uMjEzLjAxOC0uNDA5dC4wNTMtLjQwOXEuMDcxLS4xNzguMTQyLS4zOTF0LjE3OC0uMzkxcS4xMDctLjIxMy4zMi0uMzM4dC40NjItLjE5NnEuMjEzLjEwNy40OC4zMzh0LjQ4LjUxNmwxLjAzMSAxLjIwOS41NjkuNzExdC42MDQuNjQuNjc2LjQ5OC42NzYuMjg0cS4wMzYgMCAuMTk2LjA1M3QuMzczLjA4OXEuMjQ5LjA3MS41NTEuMTZ0LjYyMi4xOTZxLjcxMS4xNzggMS40NzYuNTY5dDEuNTgyLjkyNHEuODE4LjYwNCAxLjYgMS40NTh0MS41NjQgMS45OTFxLjc4MiAxLjEwMiAxLjE1NiAyLjYzMXQuMzczIDMuNDEzcTAgLjM1Ni0uMDE4LjcxMXQtLjAxOC43MTFxMCAuMzItLjA1My42NHQtLjA4OS41NjlsLS40MjcgMi4wOTgtLjI4NC43MTFxLjk5Ni42NzYgMS41ODIgMS40MjJ0Ljc2NCAxLjYuMjY3IDEuODEzLjA4OSAxLjk5MWwuMDM2LjMyLS4wMzYuMjg0aC0yMi4zNjR6Ii8+PC9zdmc+;imageBackground=none;flipH=1;" parent="29K_5r2xHtcd2idBqks7-28" vertex="1">
          <mxGeometry x="30.19699216267739" y="18.74819277108433" width="41.942541073384454" height="41.942541073384454" as="geometry" />
        </mxCell>
        <mxCell id="29K_5r2xHtcd2idBqks7-33" value="" style="endArrow=none;html=1;rounded=0;noJump=1;entryX=0.81;entryY=1.004;entryDx=0;entryDy=0;entryPerimeter=0;strokeWidth=2;exitX=0.75;exitY=1;exitDx=0;exitDy=0;" parent="29K_5r2xHtcd2idBqks7-28" source="29K_5r2xHtcd2idBqks7-32" target="29K_5r2xHtcd2idBqks7-32" edge="1">
          <mxGeometry width="50" height="50" relative="1" as="geometry">
            <mxPoint x="65.41834357127725" y="62.83132530120482" as="sourcePoint" />
            <mxPoint x="37.98677881034447" y="62.78598990470972" as="targetPoint" />
          </mxGeometry>
        </mxCell>
        <mxCell id="29K_5r2xHtcd2idBqks7-27" value="" style="whiteSpace=wrap;html=1;aspect=fixed;strokeColor=#82b366;fillColor=none;" parent="29K_5r2xHtcd2idBqks7-1" vertex="1">
          <mxGeometry x="32.830000000000005" y="172.62" width="64.38" height="64.38" as="geometry" />
        </mxCell>
        <mxCell id="29K_5r2xHtcd2idBqks7-3" value="&lt;font style=&quot;font-size: 15px;&quot;&gt;Environments&lt;/font&gt;" style="swimlane;whiteSpace=wrap;html=1;collapsible=0;startSize=30;" parent="1" vertex="1">
          <mxGeometry x="580" y="75" width="200" height="330" as="geometry" />
        </mxCell>
        <mxCell id="29K_5r2xHtcd2idBqks7-128" value="&lt;font style=&quot;font-size: 16px;&quot;&gt;Environment 0&lt;/font&gt;" style="rounded=1;whiteSpace=wrap;html=1;" parent="29K_5r2xHtcd2idBqks7-3" vertex="1">
          <mxGeometry x="30" y="55" width="140" height="40" as="geometry" />
        </mxCell>
        <mxCell id="29K_5r2xHtcd2idBqks7-129" value="&lt;font style=&quot;font-size: 16px;&quot;&gt;Environment 1&lt;/font&gt;" style="rounded=1;whiteSpace=wrap;html=1;" parent="29K_5r2xHtcd2idBqks7-3" vertex="1">
          <mxGeometry x="30" y="120" width="140" height="40" as="geometry" />
        </mxCell>
        <mxCell id="29K_5r2xHtcd2idBqks7-130" value="&lt;font style=&quot;font-size: 16px;&quot;&gt;Environment 2&lt;/font&gt;" style="rounded=1;whiteSpace=wrap;html=1;" parent="29K_5r2xHtcd2idBqks7-3" vertex="1">
          <mxGeometry x="30" y="190" width="140" height="40" as="geometry" />
        </mxCell>
        <mxCell id="29K_5r2xHtcd2idBqks7-131" value="&lt;font style=&quot;font-size: 16px;&quot;&gt;Environment 3&lt;/font&gt;" style="rounded=1;whiteSpace=wrap;html=1;" parent="29K_5r2xHtcd2idBqks7-3" vertex="1">
          <mxGeometry x="30" y="260" width="140" height="40" as="geometry" />
        </mxCell>
        <mxCell id="29K_5r2xHtcd2idBqks7-93" value="" style="group" parent="1" vertex="1" connectable="0">
          <mxGeometry x="270" y="285" width="70" height="40" as="geometry" />
        </mxCell>
        <mxCell id="29K_5r2xHtcd2idBqks7-94" value="" style="group" parent="29K_5r2xHtcd2idBqks7-93" vertex="1" connectable="0">
          <mxGeometry width="38.88888888888889" height="40.00000000000003" as="geometry" />
        </mxCell>
        <mxCell id="29K_5r2xHtcd2idBqks7-95" value="" style="rounded=1;whiteSpace=wrap;html=1;fillColor=default;strokeColor=none;arcSize=42;" parent="29K_5r2xHtcd2idBqks7-94" vertex="1">
          <mxGeometry width="38.88888888888889" height="40.00000000000001" as="geometry" />
        </mxCell>
        <mxCell id="29K_5r2xHtcd2idBqks7-96" value="" style="pointerEvents=1;shadow=0;dashed=0;html=1;strokeColor=none;fillColor=#000000;labelPosition=center;verticalLabelPosition=bottom;verticalAlign=top;align=center;outlineConnect=0;shape=mxgraph.veeam.cpu;" parent="29K_5r2xHtcd2idBqks7-94" vertex="1">
          <mxGeometry x="2.022222222222196" y="2.079999999999996" width="34.84444444444445" height="35.84" as="geometry" />
        </mxCell>
        <mxCell id="29K_5r2xHtcd2idBqks7-97" value="" style="group" parent="29K_5r2xHtcd2idBqks7-93" vertex="1" connectable="0">
          <mxGeometry x="31.11111111111111" width="38.88888888888889" height="40.00000000000003" as="geometry" />
        </mxCell>
        <mxCell id="29K_5r2xHtcd2idBqks7-98" value="" style="rounded=1;whiteSpace=wrap;html=1;fillColor=default;strokeColor=none;arcSize=42;" parent="29K_5r2xHtcd2idBqks7-97" vertex="1">
          <mxGeometry width="38.88888888888889" height="40.00000000000001" as="geometry" />
        </mxCell>
        <mxCell id="29K_5r2xHtcd2idBqks7-99" value="" style="pointerEvents=1;shadow=0;dashed=0;html=1;strokeColor=none;fillColor=#000000;labelPosition=center;verticalLabelPosition=bottom;verticalAlign=top;align=center;outlineConnect=0;shape=mxgraph.veeam.cpu;" parent="29K_5r2xHtcd2idBqks7-97" vertex="1">
          <mxGeometry x="2.022222222222196" y="2.079999999999996" width="34.84444444444445" height="35.84" as="geometry" />
        </mxCell>
        <mxCell id="29K_5r2xHtcd2idBqks7-104" value="" style="group" parent="1" vertex="1" connectable="0">
          <mxGeometry x="250" y="115" width="250" height="70.00285714285714" as="geometry" />
        </mxCell>
        <mxCell id="29K_5r2xHtcd2idBqks7-101" value="" style="rounded=0;whiteSpace=wrap;html=1;" parent="29K_5r2xHtcd2idBqks7-104" vertex="1">
          <mxGeometry width="250" height="70" as="geometry" />
        </mxCell>
        <mxCell id="29K_5r2xHtcd2idBqks7-100" value="" style="group" parent="29K_5r2xHtcd2idBqks7-104" vertex="1" connectable="0">
          <mxGeometry x="10" y="10" width="90" height="50" as="geometry" />
        </mxCell>
        <mxCell id="29K_5r2xHtcd2idBqks7-66" value="" style="rounded=1;whiteSpace=wrap;html=1;fillColor=default;strokeColor=none;container=0;" parent="29K_5r2xHtcd2idBqks7-100" vertex="1">
          <mxGeometry x="6.201117318435737" y="5.285714285714289" width="25.13966480446928" height="21.428571428571427" as="geometry" />
        </mxCell>
        <mxCell id="29K_5r2xHtcd2idBqks7-65" value="" style="pointerEvents=1;shadow=0;dashed=0;html=1;strokeColor=none;fillColor=#000000;labelPosition=center;verticalLabelPosition=bottom;verticalAlign=top;align=center;outlineConnect=0;shape=mxgraph.veeam.cpu;container=0;" parent="29K_5r2xHtcd2idBqks7-100" vertex="1">
          <mxGeometry x="-1" width="37.54189944134079" height="32" as="geometry" />
        </mxCell>
        <mxCell id="29K_5r2xHtcd2idBqks7-69" value="" style="rounded=1;whiteSpace=wrap;html=1;fillColor=default;strokeColor=none;container=0;" parent="29K_5r2xHtcd2idBqks7-100" vertex="1">
          <mxGeometry x="39.72067039106144" y="5.285714285714289" width="25.13966480446928" height="21.428571428571427" as="geometry" />
        </mxCell>
        <mxCell id="29K_5r2xHtcd2idBqks7-70" value="" style="pointerEvents=1;shadow=0;dashed=0;html=1;strokeColor=none;fillColor=#000000;labelPosition=center;verticalLabelPosition=bottom;verticalAlign=top;align=center;outlineConnect=0;shape=mxgraph.veeam.cpu;container=0;" parent="29K_5r2xHtcd2idBqks7-100" vertex="1">
          <mxGeometry x="33.519553072625705" width="37.54189944134079" height="32" as="geometry" />
        </mxCell>
        <mxCell id="29K_5r2xHtcd2idBqks7-75" value="" style="rounded=1;whiteSpace=wrap;html=1;fillColor=default;strokeColor=none;arcSize=42;container=0;" parent="29K_5r2xHtcd2idBqks7-100" vertex="1">
          <mxGeometry x="16" y="15" width="41.89944134078213" height="35.714285714285715" as="geometry" />
        </mxCell>
        <mxCell id="29K_5r2xHtcd2idBqks7-83" value="" style="rounded=1;whiteSpace=wrap;html=1;fillColor=default;strokeColor=none;arcSize=42;container=0;" parent="29K_5r2xHtcd2idBqks7-100" vertex="1">
          <mxGeometry x="48.10055865921787" y="14.285714285714286" width="41.89944134078213" height="35.714285714285715" as="geometry" />
        </mxCell>
        <mxCell id="29K_5r2xHtcd2idBqks7-84" value="" style="pointerEvents=1;shadow=0;dashed=0;html=1;strokeColor=none;fillColor=#000000;labelPosition=center;verticalLabelPosition=bottom;verticalAlign=top;align=center;outlineConnect=0;shape=mxgraph.veeam.cpu;container=0;" parent="29K_5r2xHtcd2idBqks7-100" vertex="1">
          <mxGeometry x="49" y="16.14285714285714" width="37.54189944134079" height="32" as="geometry" />
        </mxCell>
        <mxCell id="29K_5r2xHtcd2idBqks7-76" value="" style="pointerEvents=1;shadow=0;dashed=0;html=1;strokeColor=none;fillColor=#000000;labelPosition=center;verticalLabelPosition=bottom;verticalAlign=top;align=center;outlineConnect=0;shape=mxgraph.veeam.cpu;container=0;" parent="29K_5r2xHtcd2idBqks7-100" vertex="1">
          <mxGeometry x="17" y="16.14285714285714" width="37.54189944134079" height="32" as="geometry" />
        </mxCell>
        <mxCell id="29K_5r2xHtcd2idBqks7-103" value="&lt;font style=&quot;font-size: 15px;&quot;&gt;Workers 0 to 3&lt;/font&gt;" style="rounded=1;whiteSpace=wrap;html=1;fillColor=#f8cecc;strokeColor=#b85450;fontSize=16;arcSize=0;" parent="29K_5r2xHtcd2idBqks7-104" vertex="1">
          <mxGeometry x="110" y="20" width="120" height="30" as="geometry" />
        </mxCell>
        <mxCell id="29K_5r2xHtcd2idBqks7-105" value="" style="group" parent="1" vertex="1" connectable="0">
          <mxGeometry x="304.8" y="217.5" width="35.2" height="35" as="geometry" />
        </mxCell>
        <mxCell id="29K_5r2xHtcd2idBqks7-91" value="" style="rounded=1;whiteSpace=wrap;html=1;fillColor=default;strokeColor=none;" parent="29K_5r2xHtcd2idBqks7-105" vertex="1">
          <mxGeometry x="5.8142857142856945" y="5.781249999999981" width="23.571428571428566" height="23.437499999999993" as="geometry" />
        </mxCell>
        <mxCell id="29K_5r2xHtcd2idBqks7-92" value="" style="pointerEvents=1;shadow=0;dashed=0;html=1;strokeColor=none;fillColor=#000000;labelPosition=center;verticalLabelPosition=bottom;verticalAlign=top;align=center;outlineConnect=0;shape=mxgraph.veeam.cpu;" parent="29K_5r2xHtcd2idBqks7-105" vertex="1">
          <mxGeometry width="35.19999999999999" height="34.99999999999999" as="geometry" />
        </mxCell>
        <mxCell id="29K_5r2xHtcd2idBqks7-141" style="edgeStyle=orthogonalEdgeStyle;rounded=0;orthogonalLoop=1;jettySize=auto;html=1;entryX=0;entryY=0.5;entryDx=0;entryDy=0;fillColor=#dae8fc;strokeColor=#6c8ebf;strokeWidth=2;" parent="1" source="29K_5r2xHtcd2idBqks7-106" target="29K_5r2xHtcd2idBqks7-130" edge="1">
          <mxGeometry relative="1" as="geometry">
            <Array as="points">
              <mxPoint x="530" y="235" />
              <mxPoint x="530" y="285" />
            </Array>
          </mxGeometry>
        </mxCell>
        <mxCell id="29K_5r2xHtcd2idBqks7-106" value="&lt;font style=&quot;font-size: 15px;&quot;&gt;Worker 4&lt;/font&gt;" style="rounded=1;whiteSpace=wrap;html=1;fillColor=#dae8fc;strokeColor=#6c8ebf;fontSize=16;arcSize=0;" parent="1" vertex="1">
          <mxGeometry x="360" y="220" width="120" height="30" as="geometry" />
        </mxCell>
        <mxCell id="29K_5r2xHtcd2idBqks7-107" value="&lt;font style=&quot;font-size: 15px;&quot;&gt;Workets 5 to 6&lt;/font&gt;" style="rounded=1;whiteSpace=wrap;html=1;fillColor=#d5e8d4;strokeColor=#82b366;fontSize=16;arcSize=0;" parent="1" vertex="1">
          <mxGeometry x="360" y="290" width="120" height="30" as="geometry" />
        </mxCell>
        <mxCell id="29K_5r2xHtcd2idBqks7-124" style="edgeStyle=orthogonalEdgeStyle;rounded=0;orthogonalLoop=1;jettySize=auto;html=1;entryX=0;entryY=0.5;entryDx=0;entryDy=0;endArrow=none;startFill=0;" parent="1" source="29K_5r2xHtcd2idBqks7-32" target="29K_5r2xHtcd2idBqks7-120" edge="1">
          <mxGeometry relative="1" as="geometry" />
        </mxCell>
        <mxCell id="29K_5r2xHtcd2idBqks7-125" style="edgeStyle=orthogonalEdgeStyle;rounded=0;orthogonalLoop=1;jettySize=auto;html=1;endArrow=none;startFill=0;" parent="1" source="29K_5r2xHtcd2idBqks7-24" target="29K_5r2xHtcd2idBqks7-92" edge="1">
          <mxGeometry relative="1" as="geometry" />
        </mxCell>
        <mxCell id="29K_5r2xHtcd2idBqks7-126" style="edgeStyle=orthogonalEdgeStyle;rounded=0;orthogonalLoop=1;jettySize=auto;html=1;entryX=0.001;entryY=0.552;entryDx=0;entryDy=0;entryPerimeter=0;endArrow=none;startFill=0;" parent="1" source="29K_5r2xHtcd2idBqks7-5" target="29K_5r2xHtcd2idBqks7-101" edge="1">
          <mxGeometry relative="1" as="geometry" />
        </mxCell>
        <mxCell id="29K_5r2xHtcd2idBqks7-137" style="edgeStyle=orthogonalEdgeStyle;rounded=0;orthogonalLoop=1;jettySize=auto;html=1;entryX=0;entryY=0.5;entryDx=0;entryDy=0;fillColor=#f8cecc;strokeColor=#b85450;strokeWidth=2;" parent="1" source="29K_5r2xHtcd2idBqks7-101" target="29K_5r2xHtcd2idBqks7-128" edge="1">
          <mxGeometry relative="1" as="geometry" />
        </mxCell>
        <mxCell id="29K_5r2xHtcd2idBqks7-138" style="edgeStyle=orthogonalEdgeStyle;rounded=0;orthogonalLoop=1;jettySize=auto;html=1;entryX=0;entryY=0.5;entryDx=0;entryDy=0;fillColor=#f8cecc;strokeColor=#b85450;strokeWidth=2;" parent="1" source="29K_5r2xHtcd2idBqks7-101" target="29K_5r2xHtcd2idBqks7-129" edge="1">
          <mxGeometry relative="1" as="geometry">
            <Array as="points">
              <mxPoint x="550" y="150" />
              <mxPoint x="550" y="215" />
            </Array>
          </mxGeometry>
        </mxCell>
        <mxCell id="29K_5r2xHtcd2idBqks7-139" style="edgeStyle=orthogonalEdgeStyle;rounded=0;orthogonalLoop=1;jettySize=auto;html=1;entryX=0;entryY=0.25;entryDx=0;entryDy=0;fillColor=#f8cecc;strokeColor=#b85450;strokeWidth=2;" parent="1" source="29K_5r2xHtcd2idBqks7-101" target="29K_5r2xHtcd2idBqks7-130" edge="1">
          <mxGeometry relative="1" as="geometry">
            <Array as="points">
              <mxPoint x="550" y="150" />
              <mxPoint x="550" y="275" />
            </Array>
          </mxGeometry>
        </mxCell>
        <mxCell id="29K_5r2xHtcd2idBqks7-140" style="edgeStyle=orthogonalEdgeStyle;rounded=0;orthogonalLoop=1;jettySize=auto;html=1;entryX=0;entryY=0.25;entryDx=0;entryDy=0;fillColor=#f8cecc;strokeColor=#b85450;strokeWidth=2;" parent="1" source="29K_5r2xHtcd2idBqks7-101" target="29K_5r2xHtcd2idBqks7-131" edge="1">
          <mxGeometry relative="1" as="geometry">
            <Array as="points">
              <mxPoint x="550" y="150" />
              <mxPoint x="550" y="345" />
            </Array>
          </mxGeometry>
        </mxCell>
        <mxCell id="29K_5r2xHtcd2idBqks7-145" value="&lt;b&gt;&lt;font style=&quot;font-size: 15px;&quot;&gt;Learners/Strategies&lt;/font&gt;&lt;/b&gt;" style="text;html=1;align=center;verticalAlign=middle;whiteSpace=wrap;rounded=0;" parent="1" vertex="1">
          <mxGeometry x="50" y="71" width="130" height="27" as="geometry" />
        </mxCell>
        <mxCell id="29K_5r2xHtcd2idBqks7-146" value="&lt;b&gt;&lt;font style=&quot;font-size: 15px;&quot;&gt;Worker Pool&lt;/font&gt;&lt;/b&gt;" style="text;html=1;align=center;verticalAlign=middle;whiteSpace=wrap;rounded=0;" parent="1" vertex="1">
          <mxGeometry x="304.8" y="360" width="140" height="27" as="geometry" />
        </mxCell>
        <mxCell id="29K_5r2xHtcd2idBqks7-147" value="" style="endArrow=classic;html=1;rounded=0;exitX=0.062;exitY=1;exitDx=0;exitDy=0;exitPerimeter=0;edgeStyle=orthogonalEdgeStyle;" parent="1" source="29K_5r2xHtcd2idBqks7-127" edge="1">
          <mxGeometry width="50" height="50" relative="1" as="geometry">
            <mxPoint x="390" y="295" as="sourcePoint" />
            <mxPoint x="270" y="405" as="targetPoint" />
            <Array as="points">
              <mxPoint x="248" y="405" />
            </Array>
          </mxGeometry>
        </mxCell>
        <mxCell id="29K_5r2xHtcd2idBqks7-148" value="Distributed trajectory gathering" style="text;html=1;align=left;verticalAlign=middle;whiteSpace=wrap;rounded=0;" parent="1" vertex="1">
          <mxGeometry x="280" y="395" width="115" height="30" as="geometry" />
        </mxCell>
        <mxCell id="29K_5r2xHtcd2idBqks7-149" value="&lt;font style=&quot;font-size: 11px;&quot;&gt;off-policy actor-critic + replay buffers&lt;/font&gt;" style="text;html=1;align=left;verticalAlign=middle;whiteSpace=wrap;rounded=0;" parent="1" vertex="1">
          <mxGeometry x="55" y="365" width="120" height="30" as="geometry" />
        </mxCell>
        <mxCell id="29K_5r2xHtcd2idBqks7-154" value="&lt;b&gt;Service Discovery Mesh&lt;/b&gt;" style="text;html=1;align=left;verticalAlign=middle;whiteSpace=wrap;rounded=0;" parent="1" vertex="1">
          <mxGeometry x="210" y="40" width="180" height="20" as="geometry" />
        </mxCell>
      </root>
    </mxGraphModel>
  </diagram>
</mxfile>
